{"title":"The DevilÃ‚Â´s Rock DVDRip 2011 TiCTaC","uid":6554684,"size":1022890014,"categoryP":"video","categoryS":"movies","magnet":"?xt=urn:btih:e6846c9fc4e9ca9f4e242a538e87f8958d1a4a83&amp;dn=The+Devil%C3%82%C2%B4s+Rock+DVDRip+2011+TiCTaC&amp;tr=udp%3A%2F%2Ftracker.openbittorrent.com%3A80&amp;tr=udp%3A%2F%2Fopen.demonii.com%3A1337&amp;tr=udp%3A%2F%2Ftracker.coppersurfer.tk%3A6969&amp;tr=udp%3A%2F%2Fexodus.desync.com%3A6969","seeders":1,"leechers":0,"uploader":"DibyaTPB","files":1,"time":1311238628,"description":" &lt;a href=&quot;http://lookpic.com/c1/i2/2560/nS5CV3Ln.jpeg&quot; rel=&quot;nofollow&quot; target=&quot;_NEW&quot;&gt;http://lookpic.com/c1/i2/2560/nS5CV3Ln.jpeg&lt;/a&gt;\n\nIMDB\n &lt;a href=&quot;\nhttp://www.imdb.com/title/tt1712578/&quot; rel=&quot;nofollow&quot; target=&quot;_NEW&quot;&gt;\nhttp://www.imdb.com/title/tt1712578/&lt;/a&gt;\n\nPlot\n\nSet in the Channel Islands on the eve of D Day,two Kiwi commandos, sent to destroy German gun emplacements to distract Hitler's forces away from Normandy, discover a Nazi occult plot to unleash demonic forces to win the war.\n\nFile Details\n\nCast overview:\nCraig Hall Craig Hall ...\nCaptain Ben Grogan\nMatthew Sunderland Matthew Sunderland ...\nCol Klaus Meyer\nGina Varela Gina Varela ...\nHelena\nKarlos Drinkwater Karlos Drinkwater ...\nSergeant Joe Tane\nLuke Hawker Luke Hawker ...\nPrivate Muller\nJessica Grace Smith Jessica Grace Smith ...\nNicole\nNick Dunbar Nick Dunbar ...\nKreigsmarine #1\nJonathan King Jonathan King ...\nDead German\nHadyn Green Hadyn Green ...\nDead German\nGeraldine Brophy Geraldine Brophy ...\nVoice of Demon\n\nAction | Drama | Fantasy | Horror | Thriller | War\n\nCountry:\nNew Zealand\nLanguage:\nEnglish\nRelease Date:\n8 July 2011\n\n83 mins\n\nomplete name                    : G:\\The DevilÃ‚Â´s Rock DVDRip 2011 TiCTaC\\The DevilÃ‚Â´s Rock DVDRip 2011 TiCTaC.avi\nFormat                           : AVI\nFormat/Info                      : Audio Video Interleave\nFile size                        : 976 MiB\nDuration                         : 1h 23mn\nOveral bit rate                  : 1642 Kbps\nWriting application              : Lavf52.13.0\nWriting library                  : VirtualDub build 32842/release\n\nVideo\nFormat                           : MPEG-4 Visual\nFormat profile                   : Simple@L1\nFormat settings, BVOP            : No\nFormat settings, QPel            : No\nFormat settings, GMC             : No warppoints\nFormat settings, Matrix          : Default\nCodec ID                         : XVID\nCodec ID/Hint                    : XviD\nDuration                         : 1h 23mn\nBit rate                         : 1437 Kbps\nWidth                            : 720 pixels\nHeight                           : 432 pixels\nDisplay aspect ratio             : 16/9\nFrame rate                       : 25.000 fps\nResolution                       : 8 bits\nColorimetry                      : 4:2:0\nScan type                        : Progressive\nBits/(Pixel*Frame)               : 0.185\nStream size                      : 854 MiB\nWriting library                  : Lavc51.54.0\n\nAudio\nFormat                           : MPEG Audio\nFormat version                   : Version 1\nFormat profile                   : Layer 3\nCodec ID                         : 55\nCodec ID/Hint                    : MP3\nDuration                         : 1h 23mn\nBit rate mode                    : Constant\nBit rate                         : 192 Kbps\nChannel(s)                       : 2 channels\nSampling rate                    : 44.1 KHz\nResolution                       : 16 bits\nStream size                      : 114 MiB\nWriting library                  : LAME3.98 (beta)","torrent":{"xt":"urn:btih:e6846c9fc4e9ca9f4e242a538e87f8958d1a4a83","amp;dn":"The+Devil%C3%82%C2%B4s+Rock+DVDRip+2011+TiCTaC","amp;tr":["udp%3A%2F%2Ftracker.openbittorrent.com%3A80","udp%3A%2F%2Fopen.demonii.com%3A1337","udp%3A%2F%2Ftracker.coppersurfer.tk%3A6969","udp%3A%2F%2Fexodus.desync.com%3A6969"],"infoHash":"e6846c9fc4e9ca9f4e242a538e87f8958d1a4a83","infoHashBuffer":{"type":"Buffer","data":[230,132,108,159,196,233,202,159,78,36,42,83,142,135,248,149,141,26,74,131]},"announce":[],"urlList":[]}}